<svg width="100" height="100" viewBox="0 0 100 100" fill="none" xmlns="http://www.w3.org/2000/svg">
<path d="M89.9972 50.6255C89.4963 51.2433 89.0455 51.9091 88.4883 52.4705C85.0052 55.9832 81.5074 59.4812 77.9929 62.9626C77.586 63.3654 77.4399 63.7682 77.442 64.3296C77.4587 71.8809 77.4524 79.4301 77.4524 86.9813C77.4524 89.1812 76.6364 89.9993 74.443 89.9993C58.1166 89.9993 41.7923 89.9993 25.4659 89.9993C23.3831 89.9993 22.5379 89.152 22.5379 87.0565C22.5379 79.5052 22.5295 71.956 22.5504 64.4048C22.5525 63.7849 22.3876 63.3445 21.9431 62.9041C18.2617 59.2579 14.6094 55.5824 10.9385 51.9258C10.1558 51.1452 9.75723 50.2811 10.1579 49.1833C10.5148 48.2107 11.3726 47.6659 12.5559 47.6638C17.9716 47.6597 23.3873 47.6618 28.803 47.6618C31.5118 47.6618 34.2187 47.6889 36.9275 47.6492C37.9689 47.6346 38.762 47.9894 39.4883 48.7241C42.9485 52.2222 46.4358 55.6931 49.9774 59.237C50.1965 59.0283 50.401 58.8426 50.5951 58.6484C53.8738 55.3716 57.1649 52.1094 60.4164 48.8076C61.2011 48.0103 62.0485 47.643 63.1775 47.6471C71.0663 47.6785 78.9571 47.6889 86.8459 47.6388C88.3026 47.6304 89.3649 48.0374 89.9972 49.3753C89.9972 49.7906 89.9972 50.2081 89.9972 50.6255ZM27.2628 85.2553C34.1039 85.2553 40.8573 85.2553 47.5962 85.2553C47.5962 78.447 47.5962 71.6951 47.5962 64.9474C40.7905 64.9474 34.0413 64.9474 27.2628 64.9474C27.2628 71.7452 27.2628 78.4783 27.2628 85.2553ZM52.3649 85.2594C59.1914 85.2594 65.9427 85.2594 72.7066 85.2594C72.7066 78.4575 72.7066 71.7077 72.7066 64.937C65.8947 64.937 59.1434 64.937 52.3649 64.937C52.3649 71.7285 52.3649 78.4658 52.3649 85.2594ZM44.3384 60.195C41.6754 57.536 39.1982 55.0502 36.6959 52.5937C36.5122 52.4121 36.1366 52.3599 35.8486 52.3599C30.1783 52.3474 24.5059 52.3495 18.8356 52.3516C18.6206 52.3516 18.4057 52.3808 18.0592 52.4079C20.5552 54.8999 22.9573 57.2814 25.3323 59.6858C25.7142 60.0719 26.0982 60.2075 26.6325 60.2055C32.2006 60.1888 37.7665 60.195 43.3346 60.195C43.585 60.195 43.8375 60.195 44.3384 60.195ZM55.7041 60.147C56.0568 60.1721 56.207 60.1929 56.3573 60.1929C62.1069 60.195 67.8544 60.2013 73.604 60.1741C73.9379 60.1721 74.3449 59.9592 74.5912 59.715C76.8743 57.4734 79.1303 55.2047 81.3905 52.9401C81.5429 52.7878 81.6744 52.6124 81.833 52.4309C81.714 52.387 81.6681 52.3557 81.6243 52.3557C75.7202 52.3516 69.8141 52.3495 63.91 52.3599C63.7013 52.3599 63.4384 52.4476 63.2944 52.5916C60.7984 55.0544 58.319 57.536 55.7041 60.147Z" fill="#C1C1C1"/>
<path d="M55.62 10.0021C56.4695 10.4863 57.3377 11.0436 57.3023 12.1268C57.2814 12.7717 57.0142 13.5127 56.6156 14.0177C55.8934 14.9298 55.0085 15.7146 54.159 16.5181C53.1635 17.4615 51.8006 17.4365 50.7987 16.4722C50.0307 15.7334 49.2814 14.9736 48.5363 14.2118C47.117 12.7634 47.3988 11.1041 49.2125 10.1503C49.273 10.119 49.3169 10.0522 49.369 10C49.7865 10 50.2018 10 50.6192 10C51.2663 10.4842 51.9154 10.9684 52.5144 11.4172C53.153 10.9309 53.7604 10.4654 54.3677 10C54.7873 10.0021 55.2047 10.0021 55.62 10.0021Z" fill="#C1C1C1"/>
<path d="M54.371 10.002C53.7637 10.4674 53.1542 10.9307 52.5176 11.4191C51.9166 10.9704 51.2695 10.4862 50.6225 10.002C51.8706 10.002 53.1208 10.002 54.371 10.002Z" fill="white"/>
<path d="M52.3382 45.5807C52.3382 46.1526 52.3382 46.7265 52.3382 47.2984C52.3361 48.751 51.3761 49.8113 50.0384 49.8364C48.7027 49.8614 47.6926 48.8283 47.6529 47.3819C47.5382 43.2869 47.079 39.2337 46.0898 35.2514C45.303 32.0811 44.2637 29.0046 42.3166 26.3268C40.2045 23.4215 37.4414 21.8499 33.7391 22.3154C31.3453 22.6159 29.4065 23.6219 28.6636 26.0597C27.906 28.5517 28.8597 30.6159 30.7213 32.2773C32.7081 34.0492 35.1582 34.7109 37.7356 34.9885C38.4849 35.0699 39.2424 35.0866 39.9958 35.1283C41.2731 35.2013 42.2206 36.1092 42.2999 37.3427C42.375 38.522 41.4672 39.745 40.2191 39.7534C34.7137 39.7868 29.6131 38.6013 25.9922 34.0346C23.5046 30.8956 22.9724 27.3036 24.594 23.6031C26.203 19.9339 29.2667 18.1181 33.1464 17.6631C38.8 17.0015 43.1242 19.2869 46.3194 23.8682C48.7423 27.3433 50.1072 31.2754 50.9065 35.3829C51.5619 38.7474 51.9646 42.1599 52.4801 45.5494C52.4342 45.5619 52.3862 45.5702 52.3382 45.5807Z" fill="#C1C1C1"/>
<path d="M58.9524 39.8068C58.4578 39.8068 57.9631 39.834 57.4706 39.8027C56.1496 39.7192 55.1395 38.6526 55.1749 37.4066C55.2125 36.1251 56.2226 35.1379 57.5771 35.14C60.0898 35.1442 62.5628 34.9041 64.9524 34.0735C66.9705 33.3722 68.7737 32.3286 70.2784 30.7862C74.7257 26.2237 73.2377 19.9665 67.1688 18.0213C65.7267 17.56 64.1719 17.3993 62.6547 17.2282C61.2063 17.0654 60.1649 16.1345 60.1962 14.8238C60.2296 13.4985 61.3044 12.5029 62.7423 12.5238C65.8582 12.5676 68.8446 13.1478 71.5431 14.8008C78.188 18.877 79.4799 27.5616 74.3125 33.4223C71.4533 36.6657 67.7406 38.3625 63.5917 39.1995C62.0661 39.5063 60.5072 39.6399 58.9628 39.8548C58.9607 39.836 58.9565 39.8214 58.9524 39.8068Z" fill="#C1C1C1"/>
</svg>
